<svg preserveAspectRatio="none" width="100%" height="100%" overflow="visible" style="display: block;" viewBox="0 0 1903.03 2375.4" fill="none" xmlns="http://www.w3.org/2000/svg">
<g id="Group 25">
<path id="Vector" d="M19.9919 352.355C51.8233 361.02 70.1876 427.45 110.589 436.115C191.392 450.557 223.223 343.69 284.438 317.695C345.652 291.701 379.932 389.903 422.782 421.674C460.735 447.668 485.22 389.903 508.482 349.466C550.108 268.594 599.079 233.935 652.948 265.706C711.713 294.589 736.199 384.126 783.946 415.897C835.366 447.668 851.282 389.903 906.375 349.466C990.85 291.701 1023.91 401.456 1092.47 433.227C1136.54 453.445 1164.7 427.45 1192.86 387.014C1223.46 337.913 1263.87 271.483 1303.04 268.594C1382.62 259.929 1423.02 427.45 1481.79 479.44C1506.27 496.769 1531.98 488.104 1554.02 456.333C1580.96 418.785 1604.22 352.355 1643.39 332.137C1670.33 317.695 1699.71 323.472 1725.42 340.802" stroke="var(--stroke-0, #FF5733)" stroke-width="30" stroke-miterlimit="10"/>
<path id="Vector_2" d="M40.9346 934.083C69.0932 954.301 87.4575 994.737 105.822 1040.95C130.307 1069.83 154.793 1084.27 182.952 1066.94C234.372 1040.95 266.203 905.2 315.175 884.982C378.837 861.876 413.117 991.849 464.537 1014.96C519.63 1029.4 546.565 913.865 589.415 870.541C656.75 809.887 711.843 905.2 770.609 962.966C864.879 1049.61 893.037 934.083 951.803 913.865C1015.47 890.759 1046.07 991.849 1092.6 1035.17C1178.3 1098.72 1213.8 942.748 1275.01 890.759C1360.71 815.663 1413.36 957.189 1480.69 1014.96C1562.72 1078.5 1599.45 957.189 1664.34 942.748C1694.94 934.083 1719.43 954.301 1746.36 983.184" stroke="var(--stroke-0, #FF5733)" stroke-width="30" stroke-miterlimit="10"/>
<path id="Vector_3" d="M189.212 1291.01C205.128 1308.34 223.492 1340.11 241.856 1366.11C257.772 1380.55 294.501 1383.44 309.192 1383.44C386.322 1380.55 414.481 1293.9 462.228 1239.02C480.592 1221.69 502.629 1204.36 523.442 1215.92C560.171 1233.24 563.843 1317.01 603.021 1337.22C667.908 1366.11 714.431 1244.8 774.421 1215.92C857.672 1175.48 906.643 1317.01 970.306 1389.21C1059.68 1481.64 1087.84 1354.55 1133.14 1302.56C1202.92 1224.58 1212.71 1374.77 1253.12 1418.1C1283.72 1449.87 1320.45 1432.54 1351.06 1394.99C1396.36 1345.89 1439.21 1247.69 1484.51 1250.57C1567.76 1247.69 1610.61 1412.32 1681.62 1461.42C1766.09 1504.74 1810.17 1348.78 1865.26 1322.78C1876.28 1317.01 1886.07 1317.01 1894.64 1322.78" stroke="var(--stroke-0, #FF5733)" stroke-width="30" stroke-miterlimit="10"/>
<path id="Vector_4" d="M19.9919 1711.72C42.029 1720.39 66.5147 1740.6 82.4304 1772.38C103.243 1807.03 133.85 1798.37 164.458 1786.82C195.065 1772.38 219.55 1723.27 262.4 1679.95C324.839 1627.96 355.446 1691.5 406.866 1766.6C431.352 1798.37 458.286 1807.03 488.893 1752.16C520.725 1694.39 553.78 1619.3 611.322 1610.63C641.929 1607.74 682.33 1627.96 706.816 1665.51C709.265 1671.29 712.938 1679.95 719.059 1682.84C741.096 1723.27 774.152 1783.93 810.88 1786.82C851.282 1786.82 880.665 1711.72 923.515 1691.5C994.523 1665.51 1034.92 1755.05 1088.79 1795.48C1169.6 1838.81 1198.98 1729.05 1254.07 1668.4C1345.89 1552.87 1394.86 1691.5 1438.94 1766.6C1459.75 1801.26 1484.24 1856.14 1524.64 1853.25C1567.49 1841.69 1582.18 1778.15 1606.67 1743.49C1609.11 1737.72 1612.79 1726.16 1618.91 1720.39C1651.96 1671.29 1694.81 1653.96 1726.65 1682.84" stroke="var(--stroke-0, #FF5733)" stroke-width="30" stroke-miterlimit="10"/>
<path id="Vector_5" d="M19.9919 1980.33C51.8233 1989 78.7576 2055.43 109.365 2066.98C110.589 2066.98 110.589 2061.2 113.038 2066.98C177.925 2081.42 207.308 2009.22 256.279 1960.11C323.615 1899.46 357.895 1965.89 404.418 2032.32C421.558 2058.32 446.043 2072.76 468.08 2046.76C475.426 2038.1 482.772 2029.43 490.118 2014.99C514.603 1960.11 547.659 1908.12 592.958 1893.68C660.293 1870.58 700.695 1937.01 741.096 1997.66C764.358 2032.32 782.722 2055.43 813.329 2052.54C856.179 2046.76 890.459 1980.33 921.066 1965.89C988.402 1937.01 1033.7 2017.88 1086.34 2058.32C1113.28 2081.42 1150.01 2075.65 1174.49 2043.87C1214.89 2000.55 1251.62 1908.12 1298.15 1899.46C1382.62 1879.24 1425.47 2066.98 1487.91 2113.19C1551.57 2153.63 1584.63 2017.88 1631.15 1971.67C1661.76 1942.78 1694.81 1939.9 1725.42 1965.89" stroke="var(--stroke-0, #FF5733)" stroke-width="30" stroke-miterlimit="10"/>
<path id="Vector_6" d="M19.9919 2217.17C51.8233 2240.28 76.309 2303.82 97.1219 2341.37C171.803 2402.02 210.98 2303.82 244.036 2240.28C337.082 2072.76 376.259 2248.94 433.8 2286.49C508.482 2329.82 532.968 2159.41 592.958 2142.08C666.415 2118.97 721.508 2248.94 792.516 2277.83C862.3 2300.93 890.459 2217.17 936.982 2196.95C998.196 2170.96 1031.25 2277.83 1080.22 2315.37C1162.25 2370.25 1202.65 2196.95 1269.99 2159.41C1349.57 2116.08 1398.54 2246.05 1463.42 2298.04C1536.88 2350.03 1576.06 2246.05 1639.72 2225.84C1670.33 2214.28 1698.49 2231.61 1725.42 2263.38" stroke="var(--stroke-0, #FF5733)" stroke-width="30" stroke-miterlimit="10"/>
<path id="Vector_7" d="M19.9919 92.408C50.599 112.626 73.8604 173.28 98.3462 216.604C120.383 231.046 149.766 231.046 171.803 213.716C218.326 179.057 248.933 72.1899 288.11 46.1953C356.67 2.87096 390.95 141.509 443.595 161.727C508.482 181.945 536.64 31.7539 591.733 17.3124C660.293 -2.90562 715.386 115.514 776.6 147.285C862.3 193.498 894.132 75.0782 948 69.3016C1006.77 63.5251 1036.15 170.392 1086.34 199.275C1157.35 233.934 1194.08 118.403 1246.73 63.5251C1341 -43.3417 1391.19 121.291 1463.42 179.057C1546.68 236.822 1584.63 109.738 1653.19 98.1845C1681.35 95.2963 1703.38 115.514 1725.42 132.844" stroke="var(--stroke-0, #FF5733)" stroke-width="30" stroke-miterlimit="10"/>
<path id="Vector_8" d="M11.4417 571.086C33.4789 597.081 51.8432 637.517 75.1046 663.511C98.366 689.506 122.852 683.729 158.356 669.288C223.243 646.182 251.402 553.756 295.476 516.209C376.279 449.778 382.4 585.527 421.577 617.299C496.259 669.288 548.903 501.767 612.566 493.102C694.593 472.884 748.462 646.182 814.573 698.171C902.722 755.937 923.535 602.857 973.73 565.309C1026.37 533.538 1034.94 631.74 1069.22 689.506C1088.81 727.054 1123.09 732.83 1159.82 701.059C1208.79 660.623 1249.19 550.868 1304.29 539.315C1386.31 519.097 1438.96 718.389 1514.86 761.713C1591.99 790.596 1634.84 654.846 1683.82 611.522C1694.83 602.857 1705.85 597.081 1718.1 605.746" stroke="var(--stroke-0, #FF5733)" stroke-width="30" stroke-miterlimit="10"/>
</g>
</svg>
