<svg preserveAspectRatio="none" width="100%" height="100%" overflow="visible" style="display: block;" viewBox="0 0 1725.15 253.351" fill="none" xmlns="http://www.w3.org/2000/svg">
<path id="Vector" d="M8.74856 98.0022C36.9071 118.22 55.2714 158.656 73.6357 204.869C98.1214 233.752 122.607 248.193 150.766 230.864C202.186 204.869 234.017 69.1193 282.989 48.9013C346.651 25.795 380.931 155.768 432.351 178.874C487.444 193.316 514.379 77.7842 557.229 34.4599C624.564 -26.1942 679.657 69.1193 738.423 126.885C832.693 213.534 860.851 98.0022 919.617 77.7842C983.28 54.6779 1013.89 155.768 1060.41 199.092C1146.11 262.635 1181.61 106.667 1242.83 54.6779C1328.53 -20.4176 1381.17 121.109 1448.51 178.874C1530.54 242.417 1567.26 121.109 1632.15 106.667C1662.76 98.0023 1687.24 118.22 1714.18 147.103" stroke="var(--stroke-0, #FFFDF3)" stroke-opacity="0.05" stroke-width="30" stroke-miterlimit="10"/>
</svg>
