<svg preserveAspectRatio="none" width="100%" height="100%" overflow="visible" style="display: block;" viewBox="0 0 1726.76 304.251" fill="none" xmlns="http://www.w3.org/2000/svg">
<path id="Vector" d="M11.4417 94.6267C33.4789 120.621 51.8432 161.057 75.1046 187.052C98.366 213.047 122.852 207.27 158.356 192.829C223.243 169.722 251.402 77.297 295.476 39.7492C376.279 -26.6814 382.4 109.068 421.577 140.839C496.259 192.829 548.903 25.3077 612.566 16.6429C694.593 -3.57516 748.462 169.722 814.573 221.711C902.722 279.477 923.535 126.398 973.73 88.8501C1026.37 57.0789 1034.94 155.281 1069.22 213.047C1088.81 250.594 1123.09 256.371 1159.82 224.6C1208.79 184.164 1249.19 74.4087 1304.29 62.8555C1386.31 42.6375 1438.96 241.93 1514.86 285.254C1591.99 314.137 1634.84 178.387 1683.82 135.063C1694.83 126.398 1705.85 120.621 1718.1 129.286" stroke="var(--stroke-0, #FFFDF3)" stroke-opacity="0.05" stroke-width="30" stroke-miterlimit="10"/>
</svg>
